<svg width="135" height="34" viewBox="0 0 135 34" fill="none" xmlns="http://www.w3.org/2000/svg">
<path d="M6.64773 24V10.9091H11.2244C12.1364 10.9091 12.8885 11.0668 13.4808 11.3821C14.0732 11.6932 14.5142 12.1129 14.804 12.6413C15.0938 13.1655 15.2386 13.7472 15.2386 14.3864C15.2386 14.9489 15.1385 15.4134 14.9382 15.7798C14.7422 16.1463 14.4822 16.4361 14.1584 16.6491C13.8388 16.8622 13.4915 17.0199 13.1165 17.1222V17.25C13.517 17.2756 13.9197 17.4162 14.3246 17.6719C14.7294 17.9276 15.0682 18.294 15.3409 18.7713C15.6136 19.2486 15.75 19.8324 15.75 20.5227C15.75 21.179 15.6009 21.7692 15.3026 22.2933C15.0043 22.8175 14.5334 23.233 13.8899 23.5398C13.2464 23.8466 12.4091 24 11.3778 24H6.64773ZM8.23295 22.5938H11.3778C12.4134 22.5938 13.1484 22.3935 13.5831 21.9929C14.022 21.5881 14.2415 21.098 14.2415 20.5227C14.2415 20.0795 14.1286 19.6705 13.9027 19.2955C13.6768 18.9162 13.3551 18.6136 12.9375 18.3878C12.5199 18.1577 12.0256 18.0426 11.4545 18.0426H8.23295V22.5938ZM8.23295 16.6619H11.1733C11.6506 16.6619 12.081 16.5682 12.4645 16.3807C12.8523 16.1932 13.1591 15.929 13.3849 15.5881C13.6151 15.2472 13.7301 14.8466 13.7301 14.3864C13.7301 13.8111 13.5298 13.3232 13.1293 12.9226C12.7287 12.5178 12.0938 12.3153 11.2244 12.3153H8.23295V16.6619ZM22.1388 24.2045C21.2184 24.2045 20.4258 23.9872 19.761 23.5526C19.0962 23.1179 18.5849 22.5192 18.2269 21.7564C17.869 20.9936 17.69 20.1222 17.69 19.142C17.69 18.1449 17.8732 17.2649 18.2397 16.5021C18.6104 15.7351 19.1261 15.1364 19.7866 14.706C20.4513 14.2713 21.2269 14.054 22.1133 14.054C22.8036 14.054 23.4258 14.1818 23.9798 14.4375C24.5337 14.6932 24.9876 15.0511 25.3413 15.5114C25.695 15.9716 25.9144 16.5085 25.9996 17.1222H24.4911C24.3761 16.6747 24.1204 16.2784 23.7241 15.9332C23.332 15.5838 22.8036 15.4091 22.1388 15.4091C21.5508 15.4091 21.0352 15.5625 20.592 15.8693C20.1531 16.1719 19.81 16.6001 19.5629 17.1541C19.32 17.7038 19.1985 18.3494 19.1985 19.0909C19.1985 19.8494 19.3178 20.5099 19.5565 21.0724C19.7994 21.6349 20.1403 22.0717 20.5792 22.3828C21.0224 22.6939 21.5423 22.8494 22.1388 22.8494C22.5309 22.8494 22.8867 22.7812 23.2063 22.6449C23.5259 22.5085 23.7965 22.3125 24.0181 22.0568C24.2397 21.8011 24.3974 21.4943 24.4911 21.1364H25.9996C25.9144 21.7159 25.7035 22.2379 25.3668 22.7024C25.0344 23.1626 24.5934 23.5291 24.0437 23.8018C23.4982 24.0703 22.8633 24.2045 22.1388 24.2045ZM32.3214 24.2045C31.3754 24.2045 30.5593 23.9957 29.8732 23.5781C29.1914 23.1562 28.6651 22.5682 28.2944 21.8139C27.9279 21.0554 27.7447 20.1733 27.7447 19.1676C27.7447 18.1619 27.9279 17.2756 28.2944 16.5085C28.6651 15.7372 29.1808 15.1364 29.8413 14.706C30.506 14.2713 31.2816 14.054 32.168 14.054C32.6793 14.054 33.1843 14.1392 33.6829 14.3097C34.1815 14.4801 34.6353 14.7571 35.0444 15.1406C35.4535 15.5199 35.7795 16.0227 36.0224 16.6491C36.2653 17.2756 36.3867 18.0469 36.3867 18.9631V19.6023H28.8185V18.2983H34.8526C34.8526 17.7443 34.7418 17.25 34.5202 16.8153C34.3029 16.3807 33.9918 16.0376 33.587 15.7862C33.1864 15.5348 32.7134 15.4091 32.168 15.4091C31.5671 15.4091 31.0472 15.5582 30.6083 15.8565C30.1737 16.1506 29.8391 16.5341 29.6048 17.0071C29.3704 17.4801 29.2532 17.9872 29.2532 18.5284V19.3977C29.2532 20.1392 29.381 20.7678 29.6367 21.2834C29.8967 21.7947 30.2567 22.1847 30.717 22.4531C31.1772 22.7173 31.712 22.8494 32.3214 22.8494C32.7177 22.8494 33.0756 22.794 33.3952 22.6832C33.7191 22.5682 33.9982 22.3977 34.2326 22.1719C34.467 21.9418 34.6481 21.6562 34.7759 21.3153L36.2333 21.7244C36.0799 22.2188 35.8221 22.6534 35.4599 23.0284C35.0977 23.3991 34.6502 23.6889 34.1175 23.8977C33.5849 24.1023 32.9862 24.2045 32.3214 24.2045ZM47.7326 24.2045C46.8462 24.2045 46.0685 23.9936 45.3995 23.5717C44.7347 23.1499 44.2148 22.5597 43.8398 21.8011C43.4691 21.0426 43.2837 20.1562 43.2837 19.142C43.2837 18.1193 43.4691 17.2266 43.8398 16.4638C44.2148 15.701 44.7347 15.1087 45.3995 14.6868C46.0685 14.2649 46.8462 14.054 47.7326 14.054C48.619 14.054 49.3945 14.2649 50.0593 14.6868C50.7283 15.1087 51.2482 15.701 51.619 16.4638C51.994 17.2266 52.1815 18.1193 52.1815 19.142C52.1815 20.1562 51.994 21.0426 51.619 21.8011C51.2482 22.5597 50.7283 23.1499 50.0593 23.5717C49.3945 23.9936 48.619 24.2045 47.7326 24.2045ZM47.7326 22.8494C48.4059 22.8494 48.9599 22.6768 49.3945 22.3317C49.8292 21.9865 50.1509 21.5327 50.3597 20.9702C50.5685 20.4077 50.6729 19.7983 50.6729 19.142C50.6729 18.4858 50.5685 17.8743 50.3597 17.3075C50.1509 16.7408 49.8292 16.2827 49.3945 15.9332C48.9599 15.5838 48.4059 15.4091 47.7326 15.4091C47.0593 15.4091 46.5053 15.5838 46.0707 15.9332C45.636 16.2827 45.3143 16.7408 45.1055 17.3075C44.8967 17.8743 44.7923 18.4858 44.7923 19.142C44.7923 19.7983 44.8967 20.4077 45.1055 20.9702C45.3143 21.5327 45.636 21.9865 46.0707 22.3317C46.5053 22.6768 47.0593 22.8494 47.7326 22.8494ZM53.201 15.5881V14.1818H61.1783V15.5881H57.9567V24H56.4482V15.5881H53.201ZM62.7651 21.4943H64.3759C64.41 21.9375 64.6103 22.2741 64.9767 22.5043C65.3475 22.7344 65.829 22.8494 66.4213 22.8494C67.0265 22.8494 67.5442 22.7259 67.9746 22.4787C68.405 22.2273 68.6202 21.8224 68.6202 21.2642C68.6202 20.9361 68.5392 20.6506 68.3773 20.4077C68.2154 20.1605 67.9874 19.9687 67.6934 19.8324C67.3993 19.696 67.052 19.6278 66.6515 19.6278H64.964V18.2727H66.6515C67.2523 18.2727 67.6955 18.1364 67.981 17.8636C68.2708 17.5909 68.4157 17.25 68.4157 16.8409C68.4157 16.402 68.2601 16.0504 67.949 15.7862C67.638 15.5178 67.1969 15.3835 66.6259 15.3835C66.0506 15.3835 65.5712 15.5135 65.1877 15.7734C64.8042 16.0291 64.6017 16.3594 64.5804 16.7642H62.9952C63.0123 16.2358 63.1742 15.7692 63.481 15.3643C63.7878 14.9553 64.2054 14.6357 64.7338 14.4055C65.2623 14.1712 65.8674 14.054 66.5492 14.054C67.2395 14.054 67.8382 14.1754 68.3453 14.4183C68.8567 14.657 69.2509 14.983 69.5279 15.3963C69.8091 15.8054 69.9498 16.2699 69.9498 16.7898C69.9498 17.3438 69.7942 17.7912 69.4831 18.1321C69.1721 18.473 68.7821 18.7159 68.3134 18.8608V18.9631C68.6841 18.9886 69.0059 19.108 69.2786 19.321C69.5556 19.5298 69.7708 19.8047 69.9242 20.1456C70.0776 20.4822 70.1543 20.8551 70.1543 21.2642C70.1543 21.8608 69.9945 22.3807 69.6749 22.8239C69.3553 23.2628 68.9164 23.6037 68.3581 23.8466C67.7999 24.0852 67.1628 24.2045 66.4469 24.2045C65.7523 24.2045 65.1301 24.0916 64.5804 23.8658C64.0307 23.6357 63.5939 23.3182 63.2701 22.9134C62.9505 22.5043 62.7821 22.0312 62.7651 21.4943ZM73.5772 17.7358H76.3897C77.5403 17.7358 78.4203 18.0277 79.0297 18.6115C79.639 19.1953 79.9437 19.9347 79.9437 20.8295C79.9437 21.4176 79.8074 21.9524 79.5346 22.4339C79.2619 22.9112 78.8613 23.2926 78.3329 23.5781C77.8045 23.8594 77.1568 24 76.3897 24H72.2733V14.1818H73.7818V22.5938H76.3897C76.9863 22.5938 77.4764 22.4361 77.8599 22.1207C78.2434 21.8054 78.4352 21.4006 78.4352 20.9062C78.4352 20.3864 78.2434 19.9624 77.8599 19.6342C77.4764 19.3061 76.9863 19.142 76.3897 19.142H73.5772V17.7358ZM81.5034 24V14.1818H83.0119V24H81.5034ZM85.7733 24V14.1818H89.7875C90.8443 14.1818 91.6838 14.4205 92.3059 14.8977C92.9281 15.375 93.2392 16.0057 93.2392 16.7898C93.2392 17.3864 93.0623 17.8487 92.7086 18.1768C92.3549 18.5007 91.9011 18.7202 91.3471 18.8352C91.7093 18.8864 92.0609 19.0142 92.4018 19.2188C92.747 19.4233 93.0325 19.7045 93.2583 20.0625C93.4842 20.4162 93.5971 20.8509 93.5971 21.3665C93.5971 21.8693 93.4693 22.3189 93.2136 22.7152C92.9579 23.1115 92.5914 23.4247 92.1142 23.6548C91.6369 23.8849 91.0659 24 90.4011 24H85.7733ZM87.2051 22.6193H90.4011C90.921 22.6193 91.3279 22.4957 91.622 22.2486C91.916 22.0014 92.063 21.6648 92.063 21.2386C92.063 20.7315 91.916 20.3331 91.622 20.0433C91.3279 19.7493 90.921 19.6023 90.4011 19.6023H87.2051V22.6193ZM87.2051 18.2983H89.7875C90.1923 18.2983 90.5396 18.2429 90.8294 18.1321C91.1191 18.017 91.3407 17.8551 91.4941 17.6463C91.6518 17.4332 91.7306 17.1818 91.7306 16.892C91.7306 16.4787 91.5581 16.1548 91.2129 15.9205C90.8677 15.6818 90.3926 15.5625 89.7875 15.5625H87.2051V18.2983ZM97.1847 17.7358H99.9972C101.148 17.7358 102.028 18.0277 102.637 18.6115C103.246 19.1953 103.551 19.9347 103.551 20.8295C103.551 21.4176 103.415 21.9524 103.142 22.4339C102.869 22.9112 102.469 23.2926 101.94 23.5781C101.412 23.8594 100.764 24 99.9972 24H95.8807V14.1818H97.3892V22.5938H99.9972C100.594 22.5938 101.084 22.4361 101.467 22.1207C101.851 21.8054 102.043 21.4006 102.043 20.9062C102.043 20.3864 101.851 19.9624 101.467 19.6342C101.084 19.3061 100.594 19.142 99.9972 19.142H97.1847V17.7358ZM105.111 24V14.1818H106.619V24H105.111Z" fill="#212121" fill-opacity="0.8"/>
<path d="M133.849 17.7071C134.24 17.3166 134.24 16.6834 133.849 16.2929L127.485 9.92893C127.095 9.53841 126.462 9.53841 126.071 9.92893C125.681 10.3195 125.681 10.9526 126.071 11.3431L131.728 17L126.071 22.6569C125.681 23.0474 125.681 23.6805 126.071 24.0711C126.462 24.4616 127.095 24.4616 127.485 24.0711L133.849 17.7071ZM119 18H133.142V16H119V18Z" fill="#212121" fill-opacity="0.7"/>
</svg>
