<svg width="28" height="29" viewBox="0 0 28 29" fill="none" xmlns="http://www.w3.org/2000/svg">
<path fill-rule="evenodd" clip-rule="evenodd" d="M20.1558 7.02578V7.02578C23.5558 10.4257 23.5558 15.938 20.1558 19.338L15.4504 24.0434C14.6492 24.8446 13.3503 24.8446 12.5491 24.0434L7.84367 19.338C4.44375 15.938 4.44375 10.4257 7.84367 7.02578V7.02578C11.2436 3.62587 16.7559 3.62587 20.1558 7.02578Z" stroke="#6F6B71" stroke-linecap="round" stroke-linejoin="round"/>
<path fill-rule="evenodd" clip-rule="evenodd" d="M20.1558 7.02578V7.02578C23.5558 10.4257 23.5558 15.938 20.1558 19.338L15.4504 24.0434C14.6492 24.8446 13.3503 24.8446 12.5491 24.0434L7.84367 19.338C4.44375 15.938 4.44375 10.4257 7.84367 7.02578V7.02578C11.2436 3.62587 16.7559 3.62587 20.1558 7.02578Z" stroke="#6F6B71" stroke-width="1.5" stroke-linecap="round" stroke-linejoin="round"/>
<ellipse cx="14.0001" cy="13.1821" rx="2.98716" ry="2.98716" stroke="#6F6B71" stroke-width="1.5" stroke-linecap="round" stroke-linejoin="round"/>
</svg>
