<svg width="28" height="28" viewBox="0 0 28 28" fill="none" xmlns="http://www.w3.org/2000/svg">
<path d="M18.2275 22.4258C19.7656 22.4258 20.8027 21.9863 21.752 20.958C21.8135 20.8877 21.8838 20.8086 21.9453 20.7383C22.4551 20.1582 22.71 19.5518 22.71 18.9893C22.71 18.3301 22.3672 17.7324 21.5762 17.1963L18.957 15.3682C18.1309 14.7969 17.1729 14.7529 16.4346 15.4912L15.7842 16.1416C15.5557 16.3701 15.3447 16.3877 15.0723 16.2031C14.5977 15.8867 13.7012 15.0957 13.0859 14.4805C12.4619 13.8565 11.8291 13.1533 11.4863 12.6172C11.3018 12.3447 11.3193 12.1338 11.5479 11.9053L12.1982 11.2549C12.9365 10.5166 12.8926 9.5586 12.3213 8.73243L10.458 6.06934C9.93066 5.31348 9.30664 4.96192 8.64746 4.95313C8.08496 4.94434 7.4873 5.19922 6.90723 5.70899C6.83691 5.77051 6.7666 5.83204 6.70508 5.89356C5.65918 6.85157 5.20215 7.87989 5.20215 9.4795C5.20215 12.0723 6.70508 15.1309 9.63184 18.04C12.541 20.9316 15.5645 22.4258 18.2275 22.4258ZM15.9512 12.4766C16.1621 12.4766 16.3379 12.4063 16.4873 12.2568L20.0293 8.71485L21.2334 7.39649L21.0928 9.67286V10.9385C21.0928 11.3428 21.4004 11.6504 21.8047 11.668C22.2266 11.6856 22.5693 11.3604 22.5693 10.9473V5.99903C22.5693 5.41895 22.2617 5.11133 21.6816 5.11133H16.6982C16.2852 5.11133 15.96 5.45411 15.9775 5.87598C15.9951 6.28028 16.3027 6.5879 16.707 6.5879H18.0078L20.3018 6.43848L18.9658 7.64258L15.4238 11.1934C15.2656 11.3604 15.1865 11.5449 15.1865 11.7647C15.1865 12.169 15.5117 12.4766 15.9512 12.4766ZM18.2188 20.958C15.9775 20.9932 13.1914 19.4023 10.748 16.9766C8.28711 14.5508 6.65234 11.6592 6.6875 9.41797C6.70508 8.47755 7.03906 7.65137 7.70703 7.0713C7.76855 7.01856 7.83008 6.97462 7.8916 6.92188C8.1377 6.71094 8.40137 6.59669 8.64746 6.59669C8.90234 6.59669 9.13086 6.70215 9.30664 6.96583L10.959 9.43555C11.1611 9.73438 11.1699 10.0772 10.8623 10.376L10.1592 11.0703C9.49121 11.7207 9.55273 12.4854 9.97461 13.083C10.4492 13.7422 11.3369 14.7529 12.084 15.4912C12.8838 16.2822 13.9736 17.2578 14.6064 17.7148C15.2129 18.1367 15.9688 18.1982 16.6191 17.5303L17.3135 16.8272C17.6123 16.5195 17.9551 16.5283 18.2539 16.7305L20.6797 18.3477C20.9521 18.5234 21.0488 18.7432 21.0488 18.9981C21.0488 19.2441 20.9434 19.5078 20.7236 19.7627C20.6709 19.8242 20.627 19.877 20.5742 19.9473C19.9941 20.6152 19.168 20.9492 18.2188 20.958Z" fill="#6F6B71"/>
</svg>
