<svg width="280" height="322" viewBox="0 0 280 322" fill="none" xmlns="http://www.w3.org/2000/svg">
<path d="M247.316 175.078C247.316 136.56 247.316 99.3737 247.316 61.1885C258.083 67.4047 267.962 72.9549 277.842 78.838C278.952 79.5041 279.951 81.5021 279.951 82.8342C280.062 132.009 279.951 181.294 279.951 230.469C279.951 230.58 279.84 230.802 279.396 231.69C189.261 179.74 99.2375 127.791 8.43677 75.286C19.3151 68.9588 29.1944 62.9646 39.5177 57.5254C40.9607 56.7484 44.0688 57.9694 45.9559 58.9685C88.4702 83.3892 130.873 107.921 173.277 132.342C195.81 145.329 218.455 158.427 240.989 171.415C242.543 172.525 244.319 173.524 247.316 175.078Z" fill="white" fill-opacity="0.03"/>
<path d="M32.968 260.773C21.9787 254.446 12.0994 249.007 2.55308 243.012C1.11004 242.124 0.11101 239.127 0.11101 237.018C6.77345e-06 212.264 0 187.4 0 162.646C0 140.667 0 118.578 0 96.599C0 94.601 0 92.7139 0 89.6058C90.8007 141.999 180.713 193.949 271.625 246.342C265.298 250.006 259.193 252.559 254.198 256.666C243.652 265.324 234.772 263.659 223.339 256.888C162.065 220.701 100.236 185.402 38.5182 149.881C36.9641 148.993 35.4101 148.216 32.968 146.884C32.968 185.069 32.968 222.366 32.968 260.773Z" fill="white" fill-opacity="0.03"/>
<path d="M57.7212 46.8692C68.5995 40.542 78.3678 34.6588 88.4691 29.3307C90.0232 28.5536 93.0202 29.4417 94.9073 30.4407C126.987 48.7562 158.956 67.2938 191.036 85.8314C192.923 86.9414 194.81 87.9404 197.696 89.6055C197.696 70.5129 197.696 52.1973 197.696 32.6608C208.908 39.099 219.12 44.9821 229.221 50.9763C230.22 51.5313 230.664 53.5294 230.664 54.8614C230.775 84.4993 230.775 114.026 230.664 143.664C230.664 144.33 230.331 144.996 229.998 146.439C172.499 113.027 115.443 80.1702 57.7212 46.8692Z" fill="white" fill-opacity="0.03"/>
<path d="M82.2533 232.578C82.2533 251.559 82.2533 269.653 82.2533 288.301C80.6993 287.746 79.4782 287.525 78.3682 286.969C69.7099 282.085 60.9407 277.201 52.5044 271.984C50.9504 271.096 49.3963 268.654 49.3963 266.878C49.1743 237.129 49.2853 207.38 49.2853 177.631C49.2853 177.298 49.5073 176.965 49.9513 175.633C107.118 208.601 164.063 241.458 222.006 274.981C214.236 279.532 207.021 282.973 200.583 287.746C192.702 293.519 186.485 293.075 177.938 287.858C147.967 269.653 117.219 252.447 86.8044 235.02C85.9164 234.243 84.5844 233.688 82.2533 232.578Z" fill="white" fill-opacity="0.03"/>
<path d="M98.9042 260.772C123.88 275.203 147.968 289.078 172.943 303.509C161.843 309.947 151.52 315.941 141.085 321.713C140.197 322.157 138.31 321.491 137.089 320.825C125.323 314.165 113.668 307.394 102.123 300.512C100.791 299.735 99.0152 297.959 99.0152 296.627C98.7932 285.082 98.9042 273.538 98.9042 260.772Z" fill="white" fill-opacity="0.03"/>
<path d="M181.157 60.9668C156.182 46.5363 132.205 32.6609 107.118 18.2305C118.107 11.9033 128.209 6.02016 138.421 0.247985C139.531 -0.307031 141.64 0.136989 142.861 0.914011C154.739 7.68521 166.616 14.4564 178.382 21.4496C179.603 22.1156 181.046 23.7807 181.046 25.1127C181.157 36.6571 181.157 48.3124 181.157 60.9668Z" fill="white" fill-opacity="0.03"/>
</svg>
