<svg width="92" height="105" viewBox="0 0 92 105" fill="none" xmlns="http://www.w3.org/2000/svg">
<path d="M80.5937 57.0533C80.5937 44.5013 80.5937 32.3833 80.5937 19.9398C84.1025 21.9655 87.3219 23.7741 90.5413 25.6913C90.903 25.9083 91.2286 26.5594 91.2286 26.9935C91.2647 43.0182 91.2286 59.079 91.2286 75.1037C91.2286 75.1398 91.1924 75.2122 91.0477 75.5016C61.6752 58.5726 32.3388 41.6436 2.74927 24.5337C6.29423 22.4719 9.51363 20.5185 12.8777 18.7461C13.348 18.4928 14.3608 18.8907 14.9758 19.2163C28.83 27.1744 42.6481 35.1686 56.4663 43.1267C63.8094 47.3589 71.1887 51.6273 78.5318 55.8596C79.0382 56.2213 79.617 56.5469 80.5937 57.0533Z" fill="#003471" fill-opacity="0.1"/>
<path d="M10.7434 84.979C7.16227 82.9171 3.94286 81.1446 0.831981 79.1913C0.361732 78.9019 0.0361753 77.9252 0.0361753 77.2379C2.20729e-06 69.1714 0 61.0686 0 53.002C0 45.8397 0 38.6413 0 31.479C0 30.8279 0 30.213 0 29.2001C29.5896 46.2738 58.8897 63.2028 88.5155 80.2765C86.4536 81.4702 84.4641 82.3022 82.8363 83.6406C79.3998 86.4621 76.506 85.9195 72.7802 83.7129C52.8127 71.9205 32.6643 60.4175 12.5521 48.8421C12.0456 48.5527 11.5392 48.2995 10.7434 47.8654C10.7434 60.309 10.7434 72.4631 10.7434 84.979Z" fill="#003471" fill-opacity="0.1"/>
<path d="M18.8098 15.2734C22.3548 13.2116 25.538 11.2944 28.8298 9.55809C29.3362 9.30488 30.3128 9.59426 30.9278 9.91982C41.3818 15.8884 51.7996 21.9293 62.2536 27.9702C62.8686 28.3319 63.4835 28.6575 64.424 29.2001C64.424 22.9783 64.424 17.0097 64.424 10.6433C68.0775 12.7413 71.4054 14.6585 74.6972 16.6118C75.0227 16.7927 75.1674 17.4438 75.1674 17.8779C75.2036 27.5361 75.2036 37.1581 75.1674 46.8163C75.1674 47.0334 75.0589 47.2504 74.9504 47.7207C56.2128 36.8326 37.6198 26.1254 18.8098 15.2734Z" fill="#003471" fill-opacity="0.1"/>
<path d="M26.8042 75.791C26.8042 81.9766 26.8042 87.8728 26.8042 93.9499C26.2978 93.769 25.8999 93.6967 25.5381 93.5158C22.7166 91.9242 19.859 90.3326 17.1098 88.6325C16.6034 88.3431 16.097 87.5473 16.097 86.9685C16.0246 77.2741 16.0608 67.5797 16.0608 57.8854C16.0608 57.7768 16.1331 57.6683 16.2778 57.2343C34.907 67.9776 53.4637 78.6849 72.3461 89.6091C69.814 91.0922 67.4627 92.2136 65.3647 93.769C62.7964 95.65 60.7707 95.5053 57.9854 93.8052C48.2186 87.8728 38.1987 82.266 28.2873 76.5868C27.9979 76.3336 27.5638 76.1528 26.8042 75.791Z" fill="#003471" fill-opacity="0.1"/>
<path d="M32.2302 84.9789C40.3692 89.6814 48.2187 94.2031 56.3577 98.9056C52.7404 101.004 49.3763 102.957 45.976 104.838C45.6866 104.983 45.0717 104.766 44.6738 104.549C40.8394 102.378 37.0412 100.172 33.2792 97.9289C32.8452 97.6757 32.2664 97.0969 32.2664 96.6628C32.1941 92.9008 32.2302 89.1388 32.2302 84.9789Z" fill="#003471" fill-opacity="0.1"/>
<path d="M59.0344 19.8675C50.8955 15.165 43.0821 10.6433 34.907 5.94084C38.4881 3.87898 41.7799 1.96181 45.1078 0.0808118C45.4695 -0.100053 46.1568 0.044641 46.5547 0.297852C50.4252 2.50441 54.2957 4.71096 58.1301 6.98987C58.528 7.20691 58.9982 7.7495 58.9982 8.18357C59.0344 11.9456 59.0344 15.7437 59.0344 19.8675Z" fill="#003471" fill-opacity="0.1"/>
</svg>
