<svg width="55" height="55" viewBox="0 0 55 55" fill="none" xmlns="http://www.w3.org/2000/svg">
<path d="M54.8579 31.5209L52.0739 27.2612C50.8446 25.379 48.756 24.255 46.4855 24.255H39.2856V20.1118C39.2856 17.5821 37.2285 15.525 34.6988 15.525H21.2206C20.4643 11.5751 16.9875 8.57831 12.8203 8.57831C8.1016 8.57831 4.26311 12.4173 4.26311 17.1355C4.26311 20.1023 5.78222 22.7194 8.08212 24.255H0.873202C0.390643 24.255 0 24.6456 0 25.1282C0 25.6107 0.390643 26.0014 0.873202 26.0014H9.60323V27.7473H6.11092C5.62886 27.7473 5.23821 28.1379 5.23821 28.6205C5.23821 29.1031 5.62886 29.4932 6.11092 29.4932H9.60323V31.2391H0.873202C0.390643 31.2391 0 31.6298 0 32.1123C0 32.5949 0.390643 32.9855 0.873202 32.9855H9.60323V36.852C8.06413 37.5309 6.98412 39.0665 6.98412 40.8538V41.7155C6.98412 42.1981 7.37526 42.5887 7.85732 42.5887H15.6002C16.0968 44.7248 18.012 46.3233 20.2975 46.3233C22.5834 46.3233 24.4981 44.7248 24.9947 42.5887H41.7908C42.2879 44.7248 44.2031 46.3233 46.488 46.3233C48.7729 46.3233 50.6887 44.7248 51.1852 42.5887H54.1271C54.6096 42.5887 54.9998 42.1981 54.9998 41.7155V31.9984C54.9998 31.8286 54.9503 31.6622 54.8579 31.5209ZM6.00901 17.1355C6.00901 13.3799 9.06472 10.3242 12.8203 10.3242C16.5764 10.3242 19.6316 13.3799 19.6316 17.1355C19.6316 20.8911 16.5764 23.9468 12.8203 23.9468C9.06472 23.9468 6.00901 20.8911 6.00901 17.1355ZM11.3491 32.9855H13.095C13.5776 32.9855 13.9682 32.5949 13.9682 32.1123C13.9682 31.6298 13.5776 31.2391 13.095 31.2391H11.3491V29.4932H17.4606C17.9426 29.4932 18.3333 29.1031 18.3333 28.6205C18.3333 28.1379 17.9426 27.7473 17.4606 27.7473H11.3491V26.0014H22.6983C23.1803 26.0014 23.5715 25.6107 23.5715 25.1282C23.5715 24.6456 23.1803 24.255 22.6983 24.255H17.5585C19.8229 22.7429 21.325 20.1812 21.371 17.2709H34.6993C36.2654 17.2709 37.5397 18.5457 37.5397 20.1118V36.4773H11.3601C11.3566 36.4773 11.3531 36.4783 11.3491 36.4783V32.9855ZM37.5397 40.8423H25.0741C24.9367 39.8383 24.4911 38.9331 23.8332 38.2232H37.5397V40.8423ZM11.3601 38.2232H16.7617C16.1043 38.9331 15.6582 39.8383 15.5213 40.8423H8.73003C8.73602 39.3977 9.91394 38.2232 11.3601 38.2232ZM20.2975 44.5774C18.5995 44.5774 17.2173 43.1957 17.2173 41.4972C17.2173 39.7993 18.5995 38.4171 20.2975 38.4171C21.9959 38.4171 23.3776 39.7993 23.3776 41.4972C23.3776 43.1957 21.9959 44.5774 20.2975 44.5774ZM46.488 44.5774C44.7901 44.5774 43.4078 43.1957 43.4078 41.4972C43.4078 39.7993 44.7901 38.4171 46.488 38.4171C48.1865 38.4171 49.5682 39.7993 49.5682 41.4972C49.5682 43.1957 48.1865 44.5774 46.488 44.5774ZM53.2539 40.8423H51.2647C50.9435 38.491 48.9263 36.6711 46.488 36.6711C44.0498 36.6711 42.0331 38.491 41.7114 40.8423H39.2856V26.0014H46.4855C48.1635 26.0014 49.7066 26.8291 50.6128 28.2159L53.2539 32.2582V40.8423Z" fill="#212121"/>
<path d="M47.9162 41.4972C47.9162 42.286 47.2768 42.9254 46.488 42.9254C45.6992 42.9254 45.0598 42.286 45.0598 41.4972C45.0598 40.7084 45.6992 40.069 46.488 40.069C47.2768 40.069 47.9162 40.7084 47.9162 41.4972Z" fill="#212121"/>
<path d="M21.7258 41.4972C21.7258 42.286 21.0863 42.9254 20.2976 42.9254C19.5093 42.9254 18.8699 42.286 18.8699 41.4972C18.8699 40.7084 19.5093 40.069 20.2976 40.069C21.0863 40.069 21.7258 40.7084 21.7258 41.4972Z" fill="#212121"/>
<path d="M13.9683 17.1355V13.3159C13.9683 12.8334 13.5777 12.4432 13.0951 12.4432C12.6131 12.4432 12.2224 12.8334 12.2224 13.3159V16.8507L10.4405 19.295C10.1563 19.6846 10.2417 20.2301 10.6314 20.5139C10.7872 20.6278 10.9671 20.6822 11.1454 20.6822C11.4147 20.6822 11.6804 20.5578 11.8513 20.323L13.801 17.6495C13.9094 17.5006 13.9683 17.3208 13.9683 17.1355Z" fill="#212121"/>
<path d="M46.1938 26.8741H44.5238C44.0413 26.8741 43.6506 27.2647 43.6506 27.7473V33.8582C43.6506 34.3408 44.0413 34.7314 44.5238 34.7314H50.3995C50.947 34.7314 51.437 34.4482 51.7118 33.9751C51.9865 33.502 51.987 32.9355 51.7163 32.4635L49.6776 28.8952C48.9658 27.6494 47.6305 26.8741 46.1938 26.8741ZM45.397 32.9855V28.6205H46.1938C47.0056 28.6205 47.7594 29.0576 48.1615 29.7619L50.0033 32.9855H45.397Z" fill="#212121"/>
</svg>
