<svg width="55" height="55" viewBox="0 0 55 55" fill="none" xmlns="http://www.w3.org/2000/svg">
<path d="M18.3222 18.3392H14.6578C14.1519 18.3392 13.7417 18.7494 13.7417 19.2553V22.9198C13.7417 23.4257 14.1519 23.8359 14.6578 23.8359H18.3222C18.8282 23.8359 19.2383 23.4257 19.2383 22.9198V19.2553C19.2383 18.7494 18.8282 18.3392 18.3222 18.3392ZM17.4061 22.0037H15.5739V20.1714H17.4061V22.0037Z" fill="#212121"/>
<path d="M25.6511 18.3392H21.9867C21.4807 18.3392 21.0706 18.7494 21.0706 19.2553V22.9198C21.0706 23.4257 21.4807 23.8359 21.9867 23.8359H25.6511C26.157 23.8359 26.5672 23.4257 26.5672 22.9198V19.2553C26.5672 18.7494 26.157 18.3392 25.6511 18.3392ZM24.735 22.0037H22.9028V20.1714H24.735V22.0037Z" fill="#212121"/>
<path d="M32.9799 18.3392H29.3155C28.8096 18.3392 28.3994 18.7494 28.3994 19.2553V22.9198C28.3994 23.4257 28.8096 23.8359 29.3155 23.8359H32.9799C33.4859 23.8359 33.896 23.4257 33.896 22.9198V19.2553C33.896 18.7494 33.4859 18.3392 32.9799 18.3392ZM32.0638 22.0037H30.2316V20.1714H32.0638V22.0037Z" fill="#212121"/>
<path d="M40.3088 18.3392H36.6444C36.1385 18.3392 35.7283 18.7494 35.7283 19.2553V22.9198C35.7283 23.4257 36.1385 23.8359 36.6444 23.8359H40.3088C40.8147 23.8359 41.2249 23.4257 41.2249 22.9198V19.2553C41.2249 18.7494 40.8147 18.3392 40.3088 18.3392ZM39.3927 22.0037H37.5605V20.1714H39.3927V22.0037Z" fill="#212121"/>
<path d="M54.5753 36.6432C54.5535 36.6294 54.5313 36.6166 54.5084 36.6047C52.9814 35.7231 51.1581 35.5116 49.4698 36.0202V9.9504C49.47 9.5583 49.2207 9.20949 48.8496 9.08284L27.7791 1.89873C27.5875 1.83185 27.3789 1.83185 27.1873 1.89873L6.11685 9.08284C5.74571 9.20949 5.49642 9.5583 5.49664 9.9504V37.4245H0.916108C0.410187 37.4245 0 37.8346 0 38.3406V52.2352C0 52.7411 0.410187 53.1513 0.916108 53.1513H9.16108C9.667 53.1513 10.0772 52.7411 10.0772 52.2352V49.4868H42.6805C42.3244 50.3594 42.1412 51.2927 42.1409 52.2352C42.1409 52.7411 42.5511 53.1513 43.0571 53.1513C43.563 53.1513 43.9732 52.7411 43.9732 52.2352C43.9772 49.893 45.4634 47.81 47.677 47.0445C47.7729 47.0292 47.8658 46.9982 47.9518 46.9529C48.4453 46.8105 48.9562 46.7384 49.4698 46.7385C49.9757 46.7385 50.3859 46.3283 50.3859 45.8224C50.3859 45.3165 49.9757 44.9063 49.4698 44.9063C48.9145 44.9081 48.3613 44.9733 47.8208 45.1005C47.114 44.2829 46.724 43.2388 46.7215 42.158C46.7206 39.6283 48.7706 37.5766 51.3003 37.5757C52.105 37.5754 52.8955 37.7871 53.5923 38.1894C54.0193 38.4608 54.5855 38.3347 54.8569 37.9078C55.1283 37.4809 55.0022 36.9146 54.5753 36.6432ZM8.24497 51.3191H1.83222V48.5707H8.24497V51.3191ZM8.24497 46.7385H1.83222V43.9902H8.24497V46.7385ZM8.24497 42.158H1.83222V39.2567H8.24497V42.158ZM40.3087 47.6546H14.6577V45.8224H40.3087V47.6546ZM40.3087 43.9902H14.6577V42.158H40.3087V43.9902ZM40.3087 40.3258H14.6577V38.4935H40.3087V40.3258ZM40.3087 36.6613H14.6577V34.8291H40.3087V36.6613ZM40.3087 32.9969H14.6577V31.1647H40.3087V32.9969ZM40.3087 29.3325H14.6577V27.5003H40.3087V29.3325ZM47.6376 36.9032C44.7468 38.9097 44.0206 42.8748 46.0124 45.7757C45.1425 46.2445 44.3758 46.8835 43.7579 47.6546H42.1409V26.5842C42.1409 26.0782 41.7308 25.668 41.2248 25.668H13.7416C13.2357 25.668 12.8255 26.0782 12.8255 26.5842V47.6546H10.0772V38.3406C10.0772 37.8346 9.667 37.4245 9.16108 37.4245H7.32886V14.41L27.4832 7.39995L47.6376 14.41V36.9032ZM47.6376 12.4706L27.7846 5.56499C27.5895 5.49651 27.377 5.49651 27.1818 5.56499L7.32886 12.4706V10.6063L27.4832 3.73552L47.6376 10.6063V12.4706Z" fill="#212121"/>
</svg>
