<svg width="55" height="47" viewBox="0 0 55 47" fill="none" xmlns="http://www.w3.org/2000/svg">
<path fill-rule="evenodd" clip-rule="evenodd" d="M55 35.4889C55 39.9491 46.1443 42.3573 37.8121 42.3573C36.1352 42.3594 34.4596 42.2664 32.7932 42.0787C32.6438 42.0616 32.4993 42.0153 32.3678 41.9424C32.2363 41.8695 32.1205 41.7714 32.027 41.6537C31.9334 41.5361 31.8639 41.4011 31.8225 41.2566C31.7811 41.1121 31.7685 40.9608 31.7856 40.8115C31.8026 40.6621 31.849 40.5176 31.9219 40.3861C31.9948 40.2546 32.0928 40.1388 32.2105 40.0452C32.3282 39.9517 32.4631 39.8822 32.6077 39.8408C32.7522 39.7994 32.9034 39.7868 33.0528 39.8039C34.633 39.9816 36.222 40.0697 37.8121 40.0679C46.9055 40.0679 52.7076 37.356 52.7076 35.4889V34.3435C52.6893 34.046 52.575 33.7624 52.382 33.5353C49.1392 35.5652 43.3605 36.6329 37.8121 36.6329C37.1331 36.6329 36.4613 36.6183 35.8043 36.5904C35.654 36.5839 35.5066 36.5478 35.3703 36.4842C35.234 36.4207 35.1115 36.3309 35.0099 36.2201C34.9083 36.1092 34.8296 35.9794 34.7781 35.8381C34.7267 35.6968 34.7036 35.5468 34.7101 35.3965C34.7167 35.2463 34.7528 35.0988 34.8163 34.9625C34.8798 34.8263 34.9696 34.7038 35.0805 34.6022C35.1913 34.5006 35.3211 34.4218 35.4624 34.3704C35.6037 34.319 35.7538 34.2959 35.904 34.3024C36.5288 34.3303 37.1668 34.3435 37.8121 34.3435C46.9055 34.3435 52.7076 31.6316 52.7076 29.7645V28.6205C52.6895 28.323 52.5752 28.0394 52.382 27.8124C49.1392 29.8423 43.3605 30.91 37.8121 30.91C37.3853 30.91 36.96 30.9041 36.5405 30.8924C36.2368 30.8841 35.9488 30.7555 35.7398 30.535C35.5308 30.3144 35.4179 30.0199 35.4259 29.7161C35.4277 29.5652 35.4598 29.4161 35.5204 29.2778C35.581 29.1395 35.6687 29.0148 35.7785 28.9111C35.8882 28.8074 36.0177 28.7268 36.1591 28.6741C36.3006 28.6214 36.4513 28.5977 36.6021 28.6044C37.003 28.6147 37.4064 28.62 37.8121 28.6205C46.9055 28.6205 52.7076 25.9081 52.7076 24.0413V22.8973C52.6894 22.5997 52.5752 22.3161 52.382 22.089C49.1392 24.119 43.3605 25.1868 37.8121 25.1868C37.0656 25.1868 36.3293 25.1687 35.6077 25.1347C35.3044 25.1202 35.0192 24.9858 34.8148 24.7611C34.6105 24.5364 34.5037 24.2398 34.518 23.9364C34.5382 23.635 34.6746 23.3531 34.8983 23.1501C35.122 22.947 35.4157 22.8386 35.7177 22.8476C36.4027 22.8804 37.1037 22.8973 37.8121 22.8973C46.9055 22.8973 52.7076 20.1853 52.7076 18.3185V17.1745C52.6896 16.8762 52.5748 16.5918 52.3805 16.3646C49.1377 18.3942 43.3591 19.4616 37.8121 19.4616C36.0609 19.4639 34.311 19.3623 32.5717 19.1576C32.4225 19.1396 32.2782 19.0924 32.1472 19.0186C32.0162 18.9448 31.901 18.846 31.8082 18.7277C31.7153 18.6094 31.6467 18.474 31.6062 18.3292C31.5658 18.1844 31.5542 18.0331 31.5722 17.8838C31.5902 17.7345 31.6374 17.5903 31.7112 17.4593C31.785 17.3282 31.8838 17.213 32.0021 17.1202C32.1204 17.0274 32.2558 16.9588 32.4006 16.9183C32.5454 16.8778 32.6967 16.8663 32.846 16.8843C34.4942 17.078 36.1525 17.174 37.8121 17.1716C46.9055 17.1716 52.7076 14.4597 52.7076 12.5928V10.4264C49.5367 12.5946 43.5512 13.7367 37.8121 13.7367C32.0701 13.7367 26.0803 12.5927 22.9108 10.422C22.8797 10.7137 22.738 10.9824 22.5148 11.1728C22.2916 11.3632 22.0039 11.4608 21.7109 11.4455C21.4179 11.4301 21.142 11.3031 20.9398 11.0905C20.7377 10.8779 20.6248 10.5958 20.6243 10.3025V6.86825C20.6243 2.40738 29.48 0 37.8121 0C46.1443 0 55 2.40738 55 6.86825V12.5919C54.9876 13.4333 54.6792 14.2434 54.1288 14.8799C54.8284 15.7539 55 16.5764 55 17.1728V18.3168C54.9876 19.1576 54.6797 19.9672 54.1303 20.6039C54.8284 21.4774 55 22.2995 55 22.8956V24.0395C54.9877 24.8807 54.6798 25.6907 54.1303 26.3275C54.8284 27.2012 55 28.0226 55 28.6195V29.7635C54.9876 30.6046 54.6797 31.4146 54.1303 32.0515C54.8284 32.9242 55 33.747 55 34.3424V35.4879V35.4889ZM37.8121 2.28946C28.7203 2.28946 22.9167 5.00133 22.9167 6.86825C22.9167 8.73517 28.7203 11.4472 37.8121 11.4472C46.904 11.4472 52.7076 8.73517 52.7076 6.86825C52.7076 5.00133 46.9055 2.28946 37.8121 2.28946ZM34.3743 29.7631C34.3743 39.2304 26.6655 46.9333 17.1879 46.9333C7.71026 46.9333 0 39.2304 0 29.7631C0 20.2957 7.71026 12.5919 17.1879 12.5919C26.6655 12.5919 34.3743 20.2947 34.3743 29.7631ZM17.1879 14.8812C14.2452 14.884 11.3695 15.7592 8.9241 17.396C6.47873 19.0329 4.57353 21.358 3.44934 24.0774C2.32515 26.7969 2.03243 29.7885 2.60819 32.6743C3.18394 35.5601 4.60232 38.2104 6.68404 40.2902C8.76575 42.37 11.4173 43.7859 14.3036 44.359C17.1899 44.9322 20.1813 44.6367 22.8997 43.51C25.6182 42.3833 27.9415 40.476 29.5761 38.0291C31.2107 35.5823 32.0832 32.7057 32.0833 29.7631C32.077 25.8158 30.5051 22.0321 27.7127 19.2422C24.9202 16.4523 21.1352 14.884 17.1879 14.8812ZM20.3661 31.3309H14.7781V32.9795H20.3661V35.2147H14.7781V39.0412H12.5429V35.2147H10.3092V32.9795H12.5429V31.3309H10.3092V29.0957H12.5429V20.8894H20.3661C21.5511 20.891 22.687 21.3624 23.5248 22.2004C24.3626 23.0384 24.8338 24.1745 24.8351 25.3594V26.861C24.8339 28.0459 24.3627 29.182 23.5249 30.02C22.6871 30.858 21.5511 31.3295 20.3661 31.3309ZM22.6013 25.3594C22.6006 24.7669 22.3648 24.1988 21.9458 23.7798C21.5268 23.3609 20.9587 23.1252 20.3661 23.1245H14.7781V29.0957H20.3661C20.9586 29.0949 21.5266 28.8592 21.9456 28.4403C22.3646 28.0214 22.6004 27.4535 22.6013 26.861V25.3594Z" fill="#212121"/>
</svg>
