<svg width="52" height="52" viewBox="0 0 52 52" fill="none" xmlns="http://www.w3.org/2000/svg">
<path d="M16.1423 26.3047H17.672V27.7367C17.672 27.8984 17.7362 28.0534 17.8504 28.1676C17.9647 28.2819 18.1197 28.3461 18.2813 28.3461C18.443 28.3461 18.598 28.2819 18.7122 28.1676C18.8265 28.0534 18.8907 27.8984 18.8907 27.7367V26.3047H20.3819C20.5435 26.3047 20.6985 26.2405 20.8128 26.1262C20.927 26.012 20.9912 25.857 20.9912 25.6953C20.9912 25.5337 20.927 25.3787 20.8128 25.2644C20.6985 25.1502 20.5435 25.086 20.3819 25.086H18.8907V23.6059C18.8907 23.4443 18.8265 23.2893 18.7122 23.175C18.598 23.0607 18.443 22.9965 18.2813 22.9965C18.1197 22.9965 17.9647 23.0607 17.8504 23.175C17.7362 23.2893 17.672 23.4443 17.672 23.6059V25.086H16.1423C15.9807 25.086 15.8257 25.1502 15.7114 25.2644C15.5972 25.3787 15.533 25.5337 15.533 25.6953C15.533 25.857 15.5972 26.012 15.7114 26.1262C15.8257 26.2405 15.9807 26.3047 16.1423 26.3047Z" fill="#212121" stroke="#212121" stroke-width="0.5"/>
<path d="M12.6221 25.6711C12.6221 26.7865 12.9529 27.8769 13.5726 28.8044C14.1923 29.7318 15.0731 30.4546 16.1036 30.8815C17.1342 31.3083 18.2681 31.42 19.3621 31.2024C20.4561 30.9848 21.461 30.4477 22.2498 29.6589C23.0385 28.8702 23.5756 27.8653 23.7932 26.7713C24.0108 25.6773 23.8992 24.5433 23.4723 23.5128C23.0455 22.4823 22.3226 21.6015 21.3952 20.9818C20.4677 20.3621 19.3774 20.0313 18.2619 20.0312C16.7667 20.0329 15.3331 20.6277 14.2758 21.685C13.2185 22.7423 12.6238 24.1759 12.6221 25.6711ZM18.2619 21.25C19.1364 21.25 19.9911 21.5093 20.7182 21.9951C21.4452 22.4809 22.0119 23.1714 22.3465 23.9792C22.6811 24.7871 22.7687 25.676 22.5981 26.5336C22.4275 27.3912 22.0064 28.179 21.3881 28.7973C20.7698 29.4156 19.9821 29.8367 19.1245 30.0073C18.2668 30.1779 17.3779 30.0903 16.57 29.7557C15.7622 29.4211 15.0717 28.8544 14.5859 28.1274C14.1001 27.4003 13.8408 26.5455 13.8408 25.6711C13.8421 24.499 14.3084 23.3752 15.1372 22.5464C15.966 21.7175 17.0898 21.2513 18.2619 21.25Z" fill="#212121" stroke="#212121" stroke-width="0.5"/>
<path d="M31.8483 27.4643C31.9596 27.5816 32.1128 27.6498 32.2744 27.654C32.436 27.6582 32.5926 27.5981 32.7098 27.4869L33.7379 26.5112L34.7661 27.4869C34.8237 27.5442 34.8922 27.5895 34.9675 27.62C35.0428 27.6505 35.1234 27.6656 35.2047 27.6644C35.2859 27.6633 35.3661 27.6459 35.4405 27.6133C35.515 27.5808 35.5821 27.5336 35.6381 27.4747C35.694 27.4158 35.7376 27.3463 35.7663 27.2702C35.795 27.1942 35.8082 27.1132 35.8051 27.032C35.802 26.9508 35.7827 26.8711 35.7484 26.7975C35.714 26.7238 35.6653 26.6578 35.605 26.6033L34.6232 25.6715L35.605 24.7397C35.6653 24.6852 35.714 24.6192 35.7484 24.5456C35.7827 24.4719 35.802 24.3922 35.8051 24.311C35.8082 24.2298 35.795 24.1488 35.7663 24.0728C35.7376 23.9968 35.694 23.9272 35.6381 23.8683C35.5821 23.8094 35.515 23.7622 35.4405 23.7297C35.3661 23.6971 35.2859 23.6797 35.2047 23.6786C35.1234 23.6774 35.0428 23.6926 34.9675 23.7231C34.8922 23.7535 34.8237 23.7988 34.7661 23.8561L33.7379 24.8318L32.7098 23.8561C32.6523 23.7986 32.5838 23.7531 32.5084 23.7225C32.4331 23.6918 32.3523 23.6766 32.271 23.6776C32.1896 23.6787 32.1093 23.696 32.0347 23.7286C31.9602 23.7612 31.8929 23.8084 31.8369 23.8674C31.7808 23.9264 31.7372 23.996 31.7085 24.0722C31.6799 24.1483 31.6667 24.2294 31.6699 24.3107C31.6731 24.3921 31.6925 24.4719 31.7271 24.5456C31.7616 24.6193 31.8105 24.6853 31.871 24.7397L32.8528 25.6715L31.871 26.6033C31.7539 26.7145 31.6857 26.8677 31.6815 27.0291C31.6772 27.1906 31.7372 27.3471 31.8483 27.4643Z" fill="#212121" stroke="#212121" stroke-width="0.5"/>
<path d="M33.7381 31.3109C34.8535 31.311 35.944 30.9802 36.8715 30.3605C37.799 29.7408 38.5219 28.86 38.9488 27.8295C39.3757 26.7989 39.4874 25.6649 39.2698 24.5709C39.0522 23.4768 38.515 22.4719 37.7263 21.6831C36.9375 20.8943 35.9326 20.3572 34.8386 20.1396C33.7445 19.9219 32.6105 20.0336 31.5799 20.4605C30.5494 20.8874 29.6686 21.6103 29.0488 22.5378C28.4291 23.4653 28.0984 24.5557 28.0984 25.6712C28.1001 27.1664 28.6948 28.5999 29.7521 29.6571C30.8094 30.7144 32.2428 31.3092 33.7381 31.3109ZM33.7381 21.25C34.6125 21.25 35.4673 21.5093 36.1944 21.995C36.9214 22.4808 37.4881 23.1713 37.8228 23.9791C38.1574 24.787 38.245 25.6759 38.0744 26.5336C37.9039 27.3912 37.4828 28.179 36.8645 28.7973C36.2462 29.4156 35.4585 29.8367 34.6008 30.0073C33.7432 30.1779 32.8543 30.0904 32.0464 29.7558C31.2385 29.4211 30.5481 28.8545 30.0622 28.1274C29.5764 27.4004 29.3171 26.5456 29.3171 25.6712C29.3185 24.499 29.7846 23.3753 30.6134 22.5465C31.4422 21.7177 32.5659 21.2514 33.7381 21.25Z" fill="#212121" stroke="#212121" stroke-width="0.5"/>
<path d="M20.133 36.9236C20.0187 36.8093 19.8638 36.7451 19.7022 36.7451C19.5406 36.7451 19.3856 36.8093 19.2714 36.9236L16.3506 39.8442C16.2363 39.9585 16.1721 40.1135 16.1721 40.2751C16.1721 40.4367 16.2363 40.5917 16.3506 40.706C16.4649 40.8203 16.6199 40.8845 16.7815 40.8845C16.9431 40.8845 17.0981 40.8203 17.2124 40.7061L20.133 37.7854C20.1896 37.7288 20.2345 37.6617 20.2651 37.5877C20.2958 37.5138 20.3115 37.4345 20.3115 37.3545C20.3115 37.2745 20.2958 37.1952 20.2651 37.1213C20.2345 37.0473 20.1896 36.9802 20.133 36.9236Z" fill="#212121"/>
<path d="M18.2619 33.1264C17.1465 33.1264 16.0561 33.4572 15.1286 34.0768C14.2012 34.6965 13.4783 35.5773 13.0514 36.6078C12.6245 37.6384 12.5128 38.7723 12.7304 39.8663C12.948 40.9603 13.4851 41.9653 14.2738 42.754C15.0625 43.5428 16.0674 44.0799 17.1614 44.2976C18.2554 44.5152 19.3894 44.4036 20.4199 43.9767C21.4505 43.5499 22.3313 42.8271 22.951 41.8996C23.5708 40.9722 23.9016 39.8818 23.9016 38.7664C23.8999 37.2712 23.3052 35.8376 22.248 34.7803C21.1907 33.723 19.7572 33.1282 18.2619 33.1264ZM18.2619 43.1872C17.3875 43.1872 16.5328 42.928 15.8057 42.4422C15.0787 41.9564 14.512 41.2659 14.1774 40.4581C13.8427 39.6502 13.7552 38.7613 13.9258 37.9037C14.0964 37.0461 14.5174 36.2583 15.1357 35.64C15.7541 35.0217 16.5418 34.6007 17.3994 34.4301C18.257 34.2595 19.146 34.3471 19.9538 34.6818C20.7616 35.0164 21.4521 35.5831 21.9379 36.3102C22.4236 37.0372 22.6829 37.892 22.6829 38.7664C22.6815 39.9385 22.2152 41.0621 21.3864 41.8909C20.5577 42.7196 19.434 43.1858 18.2619 43.1872Z" fill="#212121" stroke="#212121" stroke-width="0.5"/>
<path d="M31.6182 39.4062H35.8577C36.0193 39.4062 36.1743 39.342 36.2886 39.2278C36.4029 39.1135 36.4671 38.9585 36.4671 38.7969C36.4671 38.6353 36.4029 38.4803 36.2886 38.366C36.1743 38.2517 36.0193 38.1875 35.8577 38.1875H31.6182C31.4565 38.1875 31.3016 38.2517 31.1873 38.366C31.073 38.4803 31.0088 38.6353 31.0088 38.7969C31.0088 38.9585 31.073 39.1135 31.1873 39.2278C31.3016 39.342 31.4565 39.4062 31.6182 39.4062Z" fill="#212121" stroke="#212121" stroke-width="0.5"/>
<path d="M33.7381 44.406C34.8535 44.406 35.9439 44.0752 36.8714 43.4555C37.7989 42.8358 38.5217 41.955 38.9486 40.9245C39.3755 39.8939 39.4872 38.7599 39.2696 37.6659C39.0519 36.5719 38.5148 35.567 37.726 34.7782C36.9373 33.9895 35.9324 33.4524 34.8383 33.2348C33.7443 33.0172 32.6103 33.1289 31.5798 33.5558C30.5493 33.9827 29.6685 34.7056 29.0488 35.6331C28.4291 36.5605 28.0983 37.651 28.0984 38.7664C28.1002 40.2616 28.6949 41.695 29.7522 42.7523C30.8094 43.8095 32.2429 44.4042 33.7381 44.406ZM33.7381 34.3452C34.6124 34.3452 35.4672 34.6044 36.1942 35.0902C36.9213 35.576 37.488 36.2664 37.8226 37.0742C38.1572 37.8821 38.2448 38.771 38.0742 39.6286C37.9037 40.4862 37.4827 41.2739 36.8644 41.8922C36.2461 42.5105 35.4584 42.9316 34.6008 43.1022C33.7432 43.2729 32.8543 43.1853 32.0465 42.8508C31.2386 42.5162 30.5481 41.9496 30.0623 41.2225C29.5765 40.4955 29.3172 39.6408 29.3171 38.7664C29.3184 37.5943 29.7846 36.4705 30.6134 35.6417C31.4422 34.8128 32.5659 34.3466 33.7381 34.3452Z" fill="#212121" stroke="#212121" stroke-width="0.5"/>
<path d="M17.6831 38.2128C17.9153 37.9806 18.0598 37.6751 18.092 37.3482C18.1242 37.0214 18.0421 36.6936 17.8597 36.4205C17.6773 36.1474 17.4058 35.9461 17.0915 35.8507C16.7773 35.7554 16.4397 35.772 16.1363 35.8976C15.8329 36.0233 15.5824 36.2503 15.4276 36.5399C15.2728 36.8295 15.2232 37.1639 15.2873 37.486C15.3513 37.808 15.5251 38.098 15.779 38.3063C16.0328 38.5146 16.3511 38.6285 16.6795 38.6285C16.8659 38.629 17.0507 38.5925 17.223 38.5211C17.3953 38.4498 17.5517 38.3449 17.6832 38.2127L17.6831 38.2128ZM16.5378 37.0672C16.5564 37.0483 16.5785 37.0333 16.6029 37.0231C16.6273 37.0128 16.6534 37.0075 16.6799 37.0074C16.7064 37.0073 16.7326 37.0124 16.7571 37.0225C16.7815 37.0326 16.8037 37.0474 16.8225 37.0661C16.8412 37.0849 16.856 37.1071 16.8661 37.1316C16.8762 37.156 16.8813 37.1822 16.8812 37.2087C16.8811 37.2352 16.8758 37.2613 16.8655 37.2857C16.8553 37.3101 16.8403 37.3323 16.8214 37.3508C16.8029 37.3697 16.7807 37.3846 16.7563 37.3949C16.7319 37.4051 16.7057 37.4105 16.6793 37.4105C16.6528 37.4106 16.6266 37.4055 16.6021 37.3954C16.5777 37.3853 16.5555 37.3705 16.5368 37.3517C16.5181 37.333 16.5032 37.3108 16.4932 37.2863C16.4831 37.2619 16.478 37.2356 16.4781 37.2092C16.4782 37.1827 16.4835 37.1565 16.4938 37.1321C16.504 37.1078 16.519 37.0856 16.5379 37.0671L16.5378 37.0672Z" fill="#212121"/>
<path d="M18.7468 39.2764C18.5483 39.4749 18.4131 39.7278 18.3583 40.0031C18.3036 40.2784 18.3317 40.5638 18.4391 40.8231C18.5465 41.0825 18.7284 41.3042 18.9619 41.4601C19.1953 41.6161 19.4697 41.6993 19.7504 41.6993C20.0311 41.6993 20.3055 41.6161 20.5389 41.4601C20.7723 41.3042 20.9543 41.0825 21.0617 40.8231C21.1691 40.5638 21.1972 40.2784 21.1425 40.0031C21.0877 39.7278 20.9525 39.4749 20.754 39.2764C20.4877 39.0106 20.1267 38.8613 19.7504 38.8613C19.3741 38.8613 19.0131 39.0106 18.7468 39.2764ZM19.8923 40.4219C19.8642 40.4499 19.8285 40.469 19.7896 40.4767C19.7507 40.4844 19.7104 40.4804 19.6738 40.4652C19.6372 40.45 19.6059 40.4243 19.5839 40.3914C19.5619 40.3584 19.5501 40.3196 19.5501 40.28C19.5501 40.2404 19.5619 40.2016 19.5839 40.1687C19.6059 40.1357 19.6372 40.11 19.6738 40.0948C19.7104 40.0796 19.7507 40.0756 19.7896 40.0834C19.8285 40.0911 19.8642 40.1101 19.8923 40.1381C19.911 40.1567 19.9259 40.1788 19.9361 40.2032C19.9462 40.2275 19.9515 40.2536 19.9514 40.28C19.9514 40.3064 19.9462 40.3325 19.936 40.3569C19.9258 40.3812 19.9109 40.4033 19.8922 40.4219H19.8923Z" fill="#212121"/>
<path d="M39.6094 3.14844H12.4922C11.2531 3.14844 10.0648 3.64065 9.18867 4.5168C8.31253 5.39294 7.82031 6.58125 7.82031 7.82031V44.1797C7.82031 45.4187 8.31253 46.6071 9.18867 47.4832C10.0648 48.3593 11.2531 48.8516 12.4922 48.8516H39.6094C40.8484 48.8516 42.0367 48.3593 42.9129 47.4832C43.789 46.6071 44.2812 45.4187 44.2812 44.1797V7.82031C44.2812 6.58125 43.789 5.39294 42.9129 4.5168C42.0367 3.64065 40.8484 3.14844 39.6094 3.14844ZM42.9609 16.6562H18.6875C18.5259 16.6562 18.3709 16.7205 18.2566 16.8347C18.1423 16.949 18.0781 17.104 18.0781 17.2656C18.0781 17.4272 18.1423 17.5822 18.2566 17.6965C18.3709 17.8108 18.5259 17.875 18.6875 17.875H42.9609V44.171C42.9644 44.6229 42.8787 45.0711 42.7087 45.4899C42.5387 45.9087 42.2877 46.2898 41.9701 46.6114C41.6525 46.933 41.2746 47.1888 40.8579 47.364C40.4413 47.5393 39.9942 47.6306 39.5422 47.6328H12.4578C12.0058 47.6306 11.5587 47.5393 11.1421 47.364C10.7254 47.1888 10.3475 46.933 10.0299 46.6114C9.71234 46.2898 9.46134 45.9087 9.29131 45.4899C9.12128 45.0711 9.03556 44.6229 9.03906 44.171V17.875H14.625C14.7866 17.875 14.9416 17.8108 15.0559 17.6965C15.1702 17.5822 15.2344 17.4272 15.2344 17.2656C15.2344 17.104 15.1702 16.949 15.0559 16.8347C14.9416 16.7205 14.7866 16.6562 14.625 16.6562H9.03906V7.82905C9.03556 7.37708 9.12128 6.92886 9.29131 6.51008C9.46134 6.0913 9.71234 5.71019 10.0299 5.3886C10.3475 5.067 10.7254 4.81123 11.1421 4.63596C11.5587 4.46069 12.0058 4.36935 12.4578 4.36719H39.5422C39.9942 4.36935 40.4413 4.46069 40.8579 4.63596C41.2746 4.81123 41.6525 5.067 41.9701 5.3886C42.2877 5.71019 42.5387 6.0913 42.7087 6.51008C42.8787 6.92886 42.9644 7.37708 42.9609 7.82905V16.6562Z" fill="#212121" stroke="#212121" stroke-width="0.5"/>
<path d="M38.7969 7.41406H13.1016C12.9399 7.41406 12.7849 7.47826 12.6707 7.59254C12.5564 7.70682 12.4922 7.86182 12.4922 8.02344V13.8125C12.4922 13.9741 12.5564 14.1291 12.6707 14.2434C12.7849 14.3577 12.9399 14.4219 13.1016 14.4219H38.7969C38.9585 14.4219 39.1135 14.3577 39.2278 14.2434C39.342 14.1291 39.4062 13.9741 39.4062 13.8125V8.02344C39.4062 7.86182 39.342 7.70682 39.2278 7.59254C39.1135 7.47826 38.9585 7.41406 38.7969 7.41406ZM38.2891 13.2031H13.7109V8.63281H38.2891V13.2031Z" fill="#212121" stroke="#212121" stroke-width="0.5"/>
</svg>
