<svg width="39" height="12" viewBox="0 0 39 12" fill="none" xmlns="http://www.w3.org/2000/svg">
<path d="M0.279785 11V0.920038H1.30878V5.46304H6.88079V0.920038H7.90278V11H6.88079V6.45004H1.30878V11H0.279785Z" fill="black"/>
<path d="M12.0268 11.21C11.4574 11.21 10.9791 11.1074 10.5918 10.902C10.2091 10.6967 9.9221 10.4237 9.73077 10.083C9.53944 9.74237 9.44377 9.37137 9.44377 8.97004C9.44377 8.55937 9.52544 8.20937 9.68877 7.92004C9.85677 7.62604 10.0831 7.3857 10.3678 7.19904C10.6571 7.01237 10.9908 6.87004 11.3688 6.77204C11.7514 6.6787 12.1738 6.59704 12.6358 6.52704C13.1024 6.45237 13.5574 6.38937 14.0008 6.33804C14.4488 6.28204 14.8408 6.22837 15.1768 6.17704L14.8128 6.40104C14.8268 5.65437 14.6821 5.10137 14.3788 4.74204C14.0754 4.38271 13.5481 4.20304 12.7968 4.20304C12.2788 4.20304 11.8401 4.3197 11.4808 4.55304C11.1261 4.78637 10.8764 5.15504 10.7318 5.65904L9.73077 5.36504C9.90344 4.68837 10.2511 4.16337 10.7738 3.79004C11.2964 3.4167 11.9754 3.23004 12.8108 3.23004C13.5014 3.23004 14.0871 3.3607 14.5678 3.62204C15.0531 3.8787 15.3961 4.25204 15.5968 4.74204C15.6901 4.96137 15.7508 5.20637 15.7788 5.47704C15.8068 5.7477 15.8208 6.02304 15.8208 6.30304V11H14.9038V9.10304L15.1698 9.21504C14.9131 9.8637 14.5141 10.3584 13.9728 10.699C13.4314 11.0397 12.7828 11.21 12.0268 11.21ZM12.1458 10.321C12.6264 10.321 13.0464 10.2347 13.4058 10.062C13.7651 9.88937 14.0544 9.6537 14.2738 9.35504C14.4931 9.0517 14.6354 8.71104 14.7008 8.33304C14.7568 8.09037 14.7871 7.82437 14.7918 7.53504C14.7964 7.24104 14.7988 7.0217 14.7988 6.87704L15.1908 7.08004C14.8408 7.1267 14.4604 7.17337 14.0498 7.22004C13.6438 7.2667 13.2424 7.32037 12.8458 7.38104C12.4538 7.44171 12.0991 7.51404 11.7818 7.59804C11.5671 7.6587 11.3594 7.74504 11.1588 7.85704C10.9581 7.96437 10.7924 8.10904 10.6618 8.29104C10.5358 8.47304 10.4728 8.69937 10.4728 8.97004C10.4728 9.18937 10.5264 9.4017 10.6338 9.60704C10.7458 9.81237 10.9231 9.98271 11.1658 10.118C11.4131 10.2534 11.7398 10.321 12.1458 10.321Z" fill="black"/>
<path d="M20.7791 2.54404C20.4477 2.54404 20.1444 2.46237 19.8691 2.29904C19.5937 2.1357 19.3744 1.9187 19.2111 1.64804C19.0524 1.3727 18.9731 1.06937 18.9731 0.738037H19.8271C19.8271 0.99937 19.9204 1.22337 20.1071 1.41004C20.2937 1.5967 20.5177 1.69004 20.7791 1.69004C21.0451 1.69004 21.2691 1.5967 21.4511 1.41004C21.6377 1.22337 21.7311 0.99937 21.7311 0.738037H22.5851C22.5851 1.06937 22.5034 1.3727 22.3401 1.64804C22.1814 1.9187 21.9644 2.1357 21.6891 2.29904C21.4137 2.46237 21.1104 2.54404 20.7791 2.54404ZM23.6491 3.44004V11H22.6481V5.11304L18.5041 11H17.6361V3.44004H18.6371V9.27804L22.7881 3.44004H23.6491Z" fill="black"/>
<path d="M27.6648 11V4.39204H24.9838V3.44004H31.3748V4.39204H28.6938V11H27.6648Z" fill="black"/>
<path d="M38.7155 3.44004V11H37.7145V5.11304L33.5705 11H32.7025V3.44004H33.7035V9.27804L37.8545 3.44004H38.7155Z" fill="black"/>
</svg>
