<svg width="36" height="10" viewBox="0 0 36 10" fill="none" xmlns="http://www.w3.org/2000/svg">
<path d="M0.840088 9.00011V0.360107H7.45809V9.00011H6.57609V1.20611H1.72209V9.00011H0.840088Z" fill="black" fill-opacity="0.6"/>
<path d="M11.843 9.18011C11.199 9.18011 10.649 9.03411 10.193 8.74211C9.73696 8.45011 9.38696 8.04611 9.14296 7.53011C8.89896 7.01411 8.77696 6.42211 8.77696 5.75411C8.77696 5.07411 8.90096 4.47811 9.14896 3.96611C9.39696 3.45411 9.74896 3.05611 10.205 2.77211C10.665 2.48411 11.211 2.34011 11.843 2.34011C12.491 2.34011 13.043 2.48611 13.499 2.77811C13.959 3.06611 14.309 3.46811 14.549 3.98411C14.793 4.49611 14.915 5.08611 14.915 5.75411C14.915 6.43411 14.793 7.03211 14.549 7.54811C14.305 8.06011 13.953 8.46011 13.493 8.74811C13.033 9.03611 12.483 9.18011 11.843 9.18011ZM11.843 8.33411C12.563 8.33411 13.099 8.09611 13.451 7.62011C13.803 7.14011 13.979 6.51811 13.979 5.75411C13.979 4.97011 13.801 4.34611 13.445 3.88211C13.093 3.41811 12.559 3.18611 11.843 3.18611C11.359 3.18611 10.959 3.29611 10.643 3.51611C10.331 3.73211 10.097 4.03411 9.94096 4.42211C9.78896 4.80611 9.71296 5.25011 9.71296 5.75411C9.71296 6.53411 9.89296 7.16011 10.253 7.63211C10.613 8.10011 11.143 8.33411 11.843 8.33411Z" fill="black" fill-opacity="0.6"/>
<path d="M21.3865 2.52011V9.00011H20.5285V3.95411L16.9765 9.00011H16.2325V2.52011H17.0905V7.52411L20.6485 2.52011H21.3865Z" fill="black" fill-opacity="0.6"/>
<path d="M25.7586 9.18011C25.1066 9.18011 24.5546 9.03411 24.1026 8.74211C23.6506 8.45011 23.3066 8.04811 23.0706 7.53611C22.8386 7.02011 22.7186 6.42811 22.7106 5.76011C22.7186 5.08011 22.8426 4.48411 23.0826 3.97211C23.3226 3.45611 23.6686 3.05611 24.1206 2.77211C24.5726 2.48411 25.1206 2.34011 25.7646 2.34011C26.4206 2.34011 26.9906 2.50011 27.4746 2.82011C27.9626 3.14011 28.2966 3.57811 28.4766 4.13411L27.6126 4.41011C27.4606 4.02211 27.2186 3.72211 26.8866 3.51011C26.5586 3.29411 26.1826 3.18611 25.7586 3.18611C25.2826 3.18611 24.8886 3.29611 24.5766 3.51611C24.2646 3.73211 24.0326 4.03411 23.8806 4.42211C23.7286 4.81011 23.6506 5.25611 23.6466 5.76011C23.6546 6.53611 23.8346 7.16011 24.1866 7.63211C24.5386 8.10011 25.0626 8.33411 25.7586 8.33411C26.1986 8.33411 26.5726 8.23411 26.8806 8.03411C27.1926 7.83011 27.4286 7.53411 27.5886 7.14611L28.4766 7.41011C28.2366 7.98611 27.8846 8.42611 27.4206 8.73011C26.9566 9.03011 26.4026 9.18011 25.7586 9.18011Z" fill="black" fill-opacity="0.6"/>
<path d="M29.7091 9.00011L29.7151 2.52011H30.6031V5.64011L33.4951 2.52011H34.6711L31.6351 5.76011L35.0671 9.00011H33.7831L30.6031 5.88011V9.00011H29.7091Z" fill="black" fill-opacity="0.6"/>
</svg>
