<svg width="12" height="13" viewBox="0 0 12 13" fill="none" xmlns="http://www.w3.org/2000/svg">
<path d="M0.98007 12.0539L0.12207 11.1299L2.80607 8.48991C2.01407 7.52191 1.61807 6.42924 1.61807 5.21191C1.61807 4.27324 1.8454 3.42258 2.30007 2.65991C2.7694 1.88258 3.39274 1.26658 4.17007 0.81191C4.9474 0.342576 5.79807 0.10791 6.72207 0.10791C7.66074 0.10791 8.5114 0.342576 9.27407 0.81191C10.0514 1.26658 10.6674 1.88258 11.1221 2.65991C11.5914 3.42258 11.8261 4.27324 11.8261 5.21191C11.8261 6.13591 11.5914 6.98658 11.1221 7.76391C10.6674 8.54124 10.0514 9.16458 9.27407 9.63391C8.5114 10.0886 7.66074 10.3159 6.72207 10.3159C5.62207 10.3159 4.62474 9.99324 3.73007 9.34791L0.98007 12.0539ZM6.72207 8.92991C7.39674 8.92991 8.01274 8.76858 8.57007 8.44591C9.14207 8.10858 9.59674 7.66124 9.93407 7.10391C10.2714 6.53191 10.4401 5.90124 10.4401 5.21191C10.4401 4.52258 10.2714 3.89924 9.93407 3.34191C9.59674 2.76991 9.1494 2.32258 8.59207 1.99991C8.03474 1.66258 7.4114 1.49391 6.72207 1.49391C6.03274 1.49391 5.40207 1.66258 4.83007 1.99991C4.27274 2.32258 3.8254 2.76991 3.48807 3.34191C3.1654 3.89924 3.00407 4.52258 3.00407 5.21191C3.00407 5.90124 3.1654 6.53191 3.48807 7.10391C3.8254 7.66124 4.27274 8.10858 4.83007 8.44591C5.40207 8.76858 6.03274 8.92991 6.72207 8.92991Z" fill="black" fill-opacity="0.6"/>
</svg>
