<svg width="20" height="20" viewBox="0 0 20 20" fill="none" xmlns="http://www.w3.org/2000/svg">
<path d="M10.22 0.217529H10.2152C4.94115 0.217529 0.652344 4.50753 0.652344 9.78275C0.652344 11.8751 1.32669 13.8145 2.47332 15.3892L1.28126 18.9426L4.95789 17.7673C6.47039 18.7693 8.27463 19.348 10.22 19.348C15.494 19.348 19.7828 15.0568 19.7828 9.78275C19.7828 4.50873 15.494 0.217529 10.22 0.217529ZM15.7857 13.7248C15.555 14.3764 14.6391 14.9169 13.9085 15.0747C13.4088 15.1811 12.7559 15.266 10.5583 14.3549C7.74734 13.1904 5.93713 10.3339 5.79604 10.1486C5.66093 9.96329 4.66017 8.63612 4.66017 7.26351C4.66017 5.8909 5.35724 5.22253 5.63821 4.93557C5.86897 4.70003 6.25039 4.59242 6.61626 4.59242C6.73463 4.59242 6.84104 4.5984 6.93669 4.60318C7.21767 4.61514 7.35876 4.63188 7.54408 5.07546C7.77484 5.63144 8.3368 7.00405 8.40376 7.14514C8.47191 7.28623 8.54006 7.47753 8.44441 7.66286C8.35474 7.85416 8.27582 7.93905 8.13474 8.10166C7.99365 8.26427 7.85974 8.38862 7.71865 8.56318C7.58952 8.71503 7.44365 8.87764 7.60626 9.15862C7.76887 9.43362 8.33082 10.3507 9.15821 11.0872C10.2259 12.0377 11.0916 12.3414 11.4013 12.4706C11.632 12.5662 11.907 12.5435 12.0756 12.3642C12.2896 12.1334 12.5539 11.7508 12.8229 11.3742C13.0142 11.1039 13.2557 11.0705 13.5092 11.1661C13.7675 11.2558 15.1341 11.9313 15.4151 12.0712C15.696 12.2123 15.8814 12.2793 15.9495 12.3976C16.0165 12.516 16.0165 13.072 15.7857 13.7248Z" fill="white"/>
</svg>
